<svg xmlns="http://www.w3.org/2000/svg" xmlns:xlink="http://www.w3.org/1999/xlink" width="40" zoomAndPan="magnify" viewBox="0 0 30 30.000001" height="40" preserveAspectRatio="xMidYMid meet" version="1.0"><defs><clipPath id="eb1a2a63b2"><path d="M 1.042969 0 L 28.621094 0 L 28.621094 29 L 1.042969 29 Z M 1.042969 0 " clip-rule="nonzero"/></clipPath></defs><g clip-path="url(#eb1a2a63b2)"><path fill="#ff2d20" d="M 28.417969 6.457031 C 28.425781 6.496094 28.433594 6.535156 28.433594 6.574219 L 28.433594 12.699219 C 28.433594 12.871094 28.359375 13 28.210938 13.085938 L 23.128906 16.046875 L 23.128906 21.914062 C 23.128906 22.070312 23.046875 22.21875 22.910156 22.300781 L 12.304688 28.476562 C 12.28125 28.492188 12.253906 28.5 12.230469 28.507812 C 12.21875 28.511719 12.210938 28.519531 12.199219 28.519531 C 12.125 28.542969 12.046875 28.542969 11.972656 28.519531 C 11.960938 28.519531 11.949219 28.511719 11.9375 28.507812 C 11.914062 28.496094 11.886719 28.488281 11.867188 28.476562 L 1.265625 22.300781 C 1.117188 22.214844 1.042969 22.085938 1.042969 21.914062 L 1.042969 3.539062 C 1.042969 3.5 1.046875 3.460938 1.058594 3.421875 C 1.0625 3.410156 1.070312 3.398438 1.074219 3.382812 C 1.082031 3.359375 1.089844 3.335938 1.101562 3.316406 C 1.109375 3.300781 1.121094 3.289062 1.132812 3.273438 C 1.144531 3.257812 1.15625 3.238281 1.171875 3.222656 C 1.183594 3.210938 1.199219 3.199219 1.214844 3.191406 C 1.230469 3.175781 1.246094 3.160156 1.261719 3.152344 L 6.5625 0.0625 C 6.710938 -0.0234375 6.859375 -0.0234375 7.003906 0.0625 L 12.308594 3.152344 C 12.324219 3.164062 12.339844 3.175781 12.355469 3.1875 C 12.371094 3.199219 12.386719 3.210938 12.398438 3.222656 C 12.414062 3.238281 12.425781 3.257812 12.4375 3.273438 C 12.449219 3.289062 12.460938 3.300781 12.46875 3.316406 C 12.480469 3.335938 12.488281 3.359375 12.496094 3.382812 C 12.5 3.398438 12.507812 3.410156 12.511719 3.421875 C 12.523438 3.460938 12.527344 3.5 12.527344 3.539062 L 12.527344 15.015625 L 16.945312 12.441406 L 16.945312 6.574219 C 16.945312 6.535156 16.953125 6.496094 16.960938 6.457031 C 16.964844 6.445312 16.972656 6.433594 16.976562 6.421875 C 16.984375 6.398438 16.992188 6.371094 17.003906 6.351562 C 17.011719 6.335938 17.027344 6.324219 17.035156 6.3125 C 17.046875 6.292969 17.058594 6.273438 17.074219 6.257812 C 17.085938 6.246094 17.101562 6.238281 17.117188 6.226562 C 17.132812 6.210938 17.148438 6.199219 17.167969 6.1875 L 22.46875 3.097656 C 22.617188 3.011719 22.761719 3.011719 22.910156 3.097656 L 28.210938 6.1875 C 28.230469 6.199219 28.242188 6.210938 28.261719 6.226562 C 28.273438 6.238281 28.289062 6.246094 28.304688 6.257812 C 28.316406 6.273438 28.328125 6.292969 28.34375 6.3125 C 28.351562 6.324219 28.363281 6.335938 28.371094 6.351562 C 28.386719 6.371094 28.390625 6.398438 28.402344 6.421875 C 28.40625 6.433594 28.414062 6.445312 28.417969 6.457031 Z M 27.546875 12.441406 L 27.546875 7.347656 L 25.691406 8.429688 L 23.128906 9.921875 L 23.128906 15.015625 L 27.550781 12.441406 Z M 22.246094 21.652344 L 22.246094 16.558594 L 19.726562 18.015625 L 12.527344 22.171875 L 12.527344 27.316406 Z M 1.925781 4.3125 L 1.925781 21.652344 L 11.644531 27.316406 L 11.644531 22.171875 L 6.566406 19.265625 L 6.566406 19.261719 L 6.5625 19.261719 C 6.546875 19.253906 6.53125 19.238281 6.515625 19.226562 C 6.503906 19.214844 6.484375 19.207031 6.472656 19.191406 C 6.457031 19.175781 6.449219 19.160156 6.4375 19.144531 C 6.425781 19.128906 6.414062 19.117188 6.402344 19.101562 L 6.402344 19.097656 C 6.394531 19.082031 6.386719 19.0625 6.378906 19.042969 C 6.371094 19.027344 6.363281 19.011719 6.359375 18.992188 C 6.351562 18.972656 6.351562 18.949219 6.351562 18.925781 C 6.347656 18.910156 6.34375 18.894531 6.34375 18.878906 L 6.34375 6.886719 L 3.78125 5.390625 Z M 6.785156 0.964844 L 2.367188 3.539062 L 6.785156 6.113281 L 11.199219 3.539062 Z M 9.082031 17.023438 L 11.644531 15.527344 L 11.644531 4.3125 L 9.789062 5.390625 L 7.226562 6.886719 L 7.226562 18.101562 Z M 22.6875 4.003906 L 18.273438 6.574219 L 22.6875 9.148438 L 27.105469 6.574219 Z M 22.246094 9.921875 L 19.683594 8.429688 L 17.828125 7.347656 L 17.828125 12.441406 L 20.390625 13.933594 L 22.246094 15.015625 Z M 12.085938 21.398438 L 21.800781 15.785156 L 17.386719 13.214844 L 12.308594 16.175781 L 7.675781 18.875 Z M 12.085938 21.398438 " fill-opacity="1" fill-rule="evenodd"/></g></svg>