<svg xmlns="http://www.w3.org/2000/svg" xmlns:xlink="http://www.w3.org/1999/xlink" width="40" zoomAndPan="magnify" viewBox="0 0 30 30.000001" height="40" preserveAspectRatio="xMidYMid meet" version="1.0"><defs><clipPath id="4eb7bc3dcd"><path d="M 0.484375 3.289062 L 29.515625 3.289062 L 29.515625 25.789062 L 0.484375 25.789062 Z M 0.484375 3.289062 " clip-rule="nonzero"/></clipPath><clipPath id="c6a13faab3"><path d="M 6 3.289062 L 24 3.289062 L 24 19 L 6 19 Z M 6 3.289062 " clip-rule="nonzero"/></clipPath></defs><g clip-path="url(#4eb7bc3dcd)"><path fill="#41b883" d="M 23.710938 3.289062 L 29.515625 3.289062 L 15 28.378906 L 0.484375 3.289062 L 11.589844 3.289062 L 15 9.105469 L 18.339844 3.289062 Z M 23.710938 3.289062 " fill-opacity="1" fill-rule="nonzero"/><path fill="#41b883" d="M 0.484375 3.289062 L 15 28.378906 L 29.515625 3.289062 L 23.710938 3.289062 L 15 18.34375 L 6.21875 3.289062 Z M 0.484375 3.289062 " fill-opacity="1" fill-rule="nonzero"/></g><g clip-path="url(#c6a13faab3)"><path fill="#35495e" d="M 6.21875 3.289062 L 15 18.417969 L 23.710938 3.289062 L 18.339844 3.289062 L 15 9.105469 L 11.589844 3.289062 Z M 6.21875 3.289062 " fill-opacity="1" fill-rule="nonzero"/></g></svg>